<svg width="30" height="27" viewBox="0 0 30 27" fill="none" xmlns="http://www.w3.org/2000/svg">
<path d="M2.96875 12.2188H28.5938C28.9336 12.2188 29.2595 12.3537 29.4997 12.594C29.74 12.8343 29.875 13.1602 29.875 13.5C29.875 13.8398 29.74 14.1657 29.4997 14.406C29.2595 14.6463 28.9336 14.7812 28.5938 14.7812H2.96875C2.62894 14.7812 2.30305 14.6463 2.06277 14.406C1.82249 14.1657 1.6875 13.8398 1.6875 13.5C1.6875 13.1602 1.82249 12.8343 2.06277 12.594C2.30305 12.3537 2.62894 12.2188 2.96875 12.2188Z" fill="white"/>
<path d="M3.49916 13.4999L14.1258 24.124C14.3664 24.3646 14.5016 24.6909 14.5016 25.0312C14.5016 25.3714 14.3664 25.6977 14.1258 25.9383C13.8853 26.1789 13.559 26.314 13.2187 26.314C12.8785 26.314 12.5522 26.1789 12.3116 25.9383L0.780346 14.407C0.661028 14.288 0.566362 14.1466 0.50177 13.991C0.437179 13.8353 0.403931 13.6684 0.403931 13.4999C0.403931 13.3314 0.437179 13.1645 0.50177 13.0088C0.566362 12.8532 0.661028 12.7118 0.780346 12.5928L12.3116 1.06153C12.5522 0.82095 12.8785 0.685791 13.2187 0.685791C13.559 0.685791 13.8853 0.82095 14.1258 1.06153C14.3664 1.30212 14.5016 1.62842 14.5016 1.96866C14.5016 2.3089 14.3664 2.6352 14.1258 2.87578L3.49916 13.4999Z" fill="white"/>
</svg>
