<svg width="26" height="16" viewBox="0 0 26 16" fill="none" xmlns="http://www.w3.org/2000/svg">
<path fill-rule="evenodd" clip-rule="evenodd" d="M14.3959 14.7102C14.0437 15.0622 13.5662 15.26 13.0682 15.26C12.5703 15.26 12.0927 15.0622 11.7406 14.7102L1.11755 4.08715C0.775481 3.73299 0.586204 3.25863 0.590482 2.76627C0.594762 2.2739 0.792255 1.80291 1.14043 1.45474C1.4886 1.10657 1.95959 0.909075 2.45196 0.904796C2.94432 0.900517 3.41867 1.0898 3.77284 1.43186L13.0682 10.7273L22.3636 1.43186C22.7178 1.0898 23.1922 0.900519 23.6845 0.904797C24.1769 0.909077 24.6479 1.10657 24.9961 1.45474C25.3442 1.80291 25.5417 2.2739 25.546 2.76627C25.5503 3.25864 25.361 3.73299 25.0189 4.08716L14.3959 14.7102Z" fill="#5D5D5D"/>
</svg>
