<svg width="26" height="15" viewBox="0 0 26 15" fill="none" xmlns="http://www.w3.org/2000/svg">
<path fill-rule="evenodd" clip-rule="evenodd" d="M11.741 0.573127C12.0931 0.221083 12.5707 0.0233154 13.0686 0.0233154C13.5665 0.0233154 14.0441 0.221083 14.3962 0.573127L25.0193 11.1962C25.3614 11.5503 25.5506 12.0247 25.5464 12.5171C25.5421 13.0094 25.3446 13.4804 24.9964 13.8286C24.6482 14.1768 24.1773 14.3743 23.6849 14.3785C23.1925 14.3828 22.7182 14.1935 22.364 13.8515L13.0686 4.55606L3.7732 13.8515C3.41903 14.1935 2.94468 14.3828 2.45231 14.3785C1.95995 14.3743 1.48896 14.1768 1.14079 13.8286C0.792616 13.4804 0.595124 13.0094 0.590846 12.5171C0.586567 12.0247 0.775844 11.5503 1.11791 11.1962L11.741 0.573127Z" fill="#5D5D5D"/>
</svg>
