<svg width="26" height="24" viewBox="0 0 26 24" fill="none" xmlns="http://www.w3.org/2000/svg">
<path d="M17.0763 8.98089L23.5278 2.56904L23.5068 6.20354C23.5 6.50654 23.7404 6.77017 24.0438 6.76342L24.4285 6.76304C24.7319 6.75592 24.9828 6.57554 24.9892 6.27254L25.0049 0.858293C25.0049 0.853066 24.9843 0.848941 24.9843 0.843691L25.0139 0.569191C25.0169 0.416941 24.9813 0.281191 24.883 0.18409C24.7859 0.0862148 24.6498 0.0265898 24.4987 0.0307148L24.2245 0.0370898C24.2193 0.0370898 24.2152 0.0389648 24.2095 0.0397383L18.831 0.0161133C18.528 0.0228633 18.2771 0.273363 18.2703 0.576738L18.2696 0.961512C18.3157 1.31889 18.5966 1.52776 18.8996 1.52101L22.4445 1.53039L16.0158 7.92001C15.7229 8.21289 15.7229 8.68764 16.0158 8.98089C16.3087 9.27339 16.7834 9.27339 17.0763 8.98089ZM8.9478 15.019L2.49632 21.4109L2.51694 17.7963C2.52407 17.4929 2.2833 17.2293 1.9803 17.236L1.57194 17.2368C1.26819 17.2443 1.01767 17.4243 1.0113 17.7277L0.995545 23.1419C0.995545 23.1472 1.01617 23.1505 1.01617 23.1565L0.986545 23.4303C0.98317 23.5825 1.0188 23.719 1.11742 23.8154C1.21417 23.9137 1.35067 23.9729 1.50142 23.9692L1.77592 23.9624C1.78115 23.9624 1.7849 23.9602 1.79092 23.9602L7.19315 23.9838C7.49615 23.9763 7.74667 23.7258 7.75377 23.4228L7.75452 23.0377C7.70842 22.681 7.42752 22.4714 7.12452 22.4782L3.57967 22.4688L10.0079 16.0799C10.3008 15.787 10.3008 15.3123 10.0079 15.0194C9.71504 14.7265 9.24065 14.7262 8.94777 15.019H8.9478ZM25.0053 23.1415L24.9896 17.7272C24.9828 17.4239 24.732 17.2439 24.429 17.2364L24.0442 17.2356C23.7408 17.2288 23.5008 17.4928 23.5072 17.7958L23.5282 21.4303L17.0763 15.019C16.7835 14.7261 16.3087 14.7261 16.0158 15.019C15.723 15.3118 15.723 15.7866 16.0158 16.0795L22.4441 22.4683L18.8996 22.4777C18.5966 22.471 18.3157 22.6806 18.2696 23.0372L18.2703 23.4223C18.2775 23.7257 18.5283 23.9762 18.831 23.9833L24.21 23.9597C24.2156 23.9597 24.2197 23.962 24.225 23.962L24.4991 23.9687C24.6502 23.9725 24.7867 23.9132 24.8835 23.815C24.9817 23.7182 25.017 23.5821 25.0143 23.4298L24.9847 23.1561C24.9847 23.1501 25.0054 23.1467 25.0054 23.1415L25.0053 23.1415ZM3.57969 1.53097L7.12494 1.52167C7.42794 1.52842 7.70882 1.31917 7.75494 0.962144L7.75419 0.577043C7.74667 0.273691 7.49612 0.022793 7.19354 0.016418L1.79092 0.039668C1.78492 0.038918 1.78117 0.037043 1.77592 0.037043L1.50142 0.0306445C1.35069 0.026543 1.21382 0.086168 1.11742 0.18402C1.0188 0.281144 0.983194 0.416895 0.986545 0.569144L1.01617 0.843644C1.01617 0.848871 0.995545 0.852644 0.995545 0.858269L1.0113 6.27252C1.01805 6.57552 1.26857 6.75589 1.57194 6.76302L1.98032 6.76337C2.28332 6.77012 2.52367 6.5065 2.51692 6.2035L2.4963 2.58887L8.9478 8.98075C9.2403 9.27364 9.71544 9.27364 10.0083 8.98075C10.3012 8.68785 10.3012 8.21275 10.0083 7.91987L3.57969 1.53097Z" fill="white"/>
</svg>
