<svg width="37" height="38" viewBox="0 0 37 38" fill="none" xmlns="http://www.w3.org/2000/svg">
<path d="M24.6977 19C25.8819 19 27.0176 19.4816 27.855 20.339C28.6924 21.1963 29.1628 22.359 29.1628 23.5714V32.7143C29.1628 33.5554 28.4931 34.2381 27.67 34.2381H9.81398C9.41924 34.2381 9.04067 34.0776 8.76154 33.7918C8.48242 33.506 8.32561 33.1184 8.32561 32.7143V23.5714C8.32561 22.359 8.79604 21.1963 9.63341 20.339C10.4708 19.4816 11.6065 19 12.7907 19H24.6977ZM21.721 25.0953H15.7675C15.3881 25.0957 15.0232 25.2444 14.7474 25.511C14.4715 25.7776 14.3055 26.142 14.2833 26.5298C14.2611 26.9175 14.3843 27.2993 14.6278 27.5971C14.8713 27.8949 15.2166 28.0863 15.5933 28.1322L15.7675 28.1429H21.721C22.1003 28.1424 22.4652 27.9937 22.741 27.7271C23.0169 27.4605 23.1829 27.0961 23.2051 26.7084C23.2274 26.3206 23.1041 25.9389 22.8607 25.641C22.6172 25.3432 22.2718 25.1518 21.8951 25.1059L21.721 25.0953ZM18.7442 12.9048C20.3219 12.9048 21.7909 13.4092 22.9965 14.2701C23.3204 14.5013 23.5413 14.8547 23.6107 15.2526C23.68 15.6506 23.5921 16.0604 23.3664 16.392C23.1406 16.7236 22.7954 16.9498 22.4067 17.0208C22.018 17.0918 21.6177 17.0018 21.2938 16.7707C20.5454 16.2379 19.6557 15.9523 18.7442 15.9524C17.7931 15.9524 16.9165 16.2541 16.1946 16.7707C16.0346 16.89 15.8529 16.9755 15.6601 17.022C15.4674 17.0686 15.2676 17.0753 15.0723 17.0418C14.877 17.0083 14.6902 16.9352 14.5229 16.8268C14.3555 16.7185 14.211 16.577 14.0977 16.4107C13.9844 16.2445 13.9046 16.0567 13.8631 15.8585C13.8216 15.6603 13.8191 15.4556 13.8558 15.2564C13.8925 15.0572 13.9677 14.8675 14.0769 14.6984C14.1862 14.5293 14.3273 14.3842 14.4919 14.2716C15.7397 13.382 17.2237 12.9049 18.7442 12.9048ZM18.7442 8.33335C21.5989 8.33335 24.2229 9.36344 26.2754 11.0808C26.5741 11.3388 26.7616 11.7067 26.7976 12.1051C26.8336 12.5035 26.7151 12.9004 26.4677 13.2101C26.2203 13.5198 25.8639 13.7175 25.4753 13.7604C25.0868 13.8034 24.6974 13.6881 24.3911 13.4396C22.7985 12.1045 20.8026 11.3768 18.7442 11.381C16.601 11.381 14.6393 12.152 13.1003 13.4381C12.9492 13.567 12.7746 13.6639 12.5867 13.7233C12.3988 13.7827 12.2012 13.8033 12.0055 13.7841C11.8097 13.7648 11.6196 13.706 11.4462 13.6111C11.2727 13.5162 11.1194 13.387 10.995 13.2311C10.8706 13.0751 10.7776 12.8955 10.7214 12.7025C10.6652 12.5096 10.647 12.3071 10.6677 12.1069C10.6883 11.9067 10.7476 11.7126 10.842 11.536C10.9364 11.3593 11.064 11.2036 11.2175 11.0777C13.341 9.29939 16.0008 8.32955 18.7442 8.33335ZM18.7442 3.76192C22.6873 3.75618 26.499 5.21289 29.4739 7.86249C29.7642 8.12961 29.9404 8.5028 29.9645 8.90164C29.9886 9.30049 29.8587 9.69307 29.6029 9.99482C29.347 10.2966 28.9855 10.4833 28.5964 10.5149C28.2073 10.5464 27.8217 10.4202 27.5226 10.1634C25.0891 7.9952 21.9703 6.80363 18.7442 6.80954C15.5161 6.8032 12.3956 7.99719 9.96282 10.1695C9.66479 10.4347 9.2761 10.5677 8.88225 10.5394C8.48841 10.5111 8.12168 10.3238 7.86273 10.0187C7.60378 9.71356 7.47382 9.31561 7.50146 8.91239C7.52909 8.50917 7.71205 8.1337 8.01007 7.86859C10.9853 5.21574 14.7988 3.75677 18.7442 3.76192Z" fill="white"/>
</svg>
